<mxfile host="app.diagrams.net" agent="Mozilla/5.0 (Macintosh; Intel Mac OS X 10_15_7) AppleWebKit/537.36 (KHTML, like Gecko) Chrome/134.0.0.0 Safari/537.36" version="26.2.14">
  <diagram name="第 1 页" id="tWMBF7RCCCsli-2ahYV_">
    <mxGraphModel dx="1426" dy="800" grid="1" gridSize="10" guides="1" tooltips="1" connect="1" arrows="1" fold="1" page="1" pageScale="1" pageWidth="827" pageHeight="1169" math="0" shadow="0">
      <root>
        <mxCell id="0" />
        <mxCell id="1" parent="0" />
        <mxCell id="5OXWWV92KjtATvUuiSVD-1" value="" style="rounded=0;whiteSpace=wrap;html=1;" parent="1" vertex="1">
          <mxGeometry x="110" y="130" width="120" height="60" as="geometry" />
        </mxCell>
        <mxCell id="5OXWWV92KjtATvUuiSVD-2" value="" style="rounded=0;whiteSpace=wrap;html=1;" parent="1" vertex="1">
          <mxGeometry x="330" y="130" width="120" height="60" as="geometry" />
        </mxCell>
        <mxCell id="5OXWWV92KjtATvUuiSVD-3" value="" style="endArrow=none;dashed=1;html=1;rounded=0;exitX=1;exitY=0.5;exitDx=0;exitDy=0;entryX=0;entryY=0.5;entryDx=0;entryDy=0;flowAnimation=1;fillColor=#f8cecc;strokeColor=#b85450;strokeWidth=3;" parent="1" source="5OXWWV92KjtATvUuiSVD-1" target="5OXWWV92KjtATvUuiSVD-2" edge="1">
          <mxGeometry width="50" height="50" relative="1" as="geometry">
            <mxPoint x="230" y="320" as="sourcePoint" />
            <mxPoint x="280" y="270" as="targetPoint" />
          </mxGeometry>
        </mxCell>
      </root>
    </mxGraphModel>
  </diagram>
</mxfile>
